#!OML:ASF X:\für Bonn\!DataBase\2005_08_12_Daniel\c3d\Daniel.ASF
:FULLY-SPECIFIED
:DEGREES
455
root 15.934 1.35271 1.11322 -762.002 -85.4195 -433.389
lowerback 23.8461 -2.74687 1.19858
upperback 7.96162 -3.97609 -0.708323
thorax -4.62329 -2.25106 -0.34372
lowerneck -6.15382 2.18036 -5.90348
upperneck -0.954691 3.20803 1.24935
head 0.621134 1.59528 1.45903
rclavicle -5.1684e-014 1.18053e-013
rhumerus -44.3634 -16.7873 -66.2902
rradius 11.5659
rwrist 71.8052
rhand -5.89955 -345.397
rfingers 7.12502
rthumb 19.9289 -374.395
lclavicle -5.1684e-014 1.18053e-013
lhumerus -767.808 25.4346 -659.671
lradius 15.6535
lwrist -71.2037
lhand -5.27545 353.869
lfingers 7.12502
lthumb 20.5287 382.804
rfemur 390.877 19.9016 388.691
rtibia 12.1998
rfoot -24.1777 -35.0866
rtoes 30.0445
lfemur 17.7512 -24.1238 -23.8011
ltibia 31.6472
lfoot -9.05211 27.3321
ltoes 14.2914
456
root 15.9337 1.35269 1.11272 -761.828 -85.4226 -433.506
lowerback 23.7798 -2.74958 1.20446
upperback 7.95045 -3.97648 -0.694312
thorax -4.6019 -2.25045 -0.334974
lowerneck -6.14949 2.17766 -5.8986
upperneck -0.95446 3.20392 1.20981
head 0.621165 1.59254 1.44533
rclavicle 2.38542e-015 -1.04113e-014
rhumerus -44.3497 -16.7663 -66.2865
rradius 11.5627
rwrist 71.7408
rhand -5.87 -345.357
rfingers 7.12502
rthumb 19.9573 -374.352
lclavicle 2.38542e-015 -1.04113e-014
lhumerus -767.881 25.6168 -659.892
lradius 15.5826
lwrist -71.3497
lhand -5.24827 353.878
lfingers 7.12502
lthumb 20.5549 382.81
rfemur 390.81 20.0237 388.777
rtibia 12.2299
rfoot -24.0652 -35.0507
rtoes 30.1323
lfemur 17.663 -24.1426 -23.79
ltibia 31.6671
lfoot -8.78263 27.1982
ltoes 14.0744
457
root 15.9332 1.35207 1.11276 -761.964 -85.4148 -433.325
lowerback 23.724 -2.7531 1.21344
upperback 7.95162 -3.97964 -0.711961
thorax -4.57483 -2.25128 -0.361175
lowerneck -6.18564 2.16994 -5.8949
upperneck -0.940445 3.19582 1.21435
head 0.632042 1.58836 1.44686
rclavicle -1.43125e-014 7.73024e-014
rhumerus -44.2925 -16.6375 -66.4345
rradius 11.5481
rwrist 71.4413
rhand -5.87908 -345.391
rfingers 7.12502
rthumb 19.9486 -374.387
lclavicle -1.43125e-014 7.73024e-014
lhumerus -767.901 25.7662 -660.099
lradius 15.4981
lwrist -71.4575
lhand -5.26306 353.922
lfingers 7.12502
lthumb 20.5406 382.855
rfemur 390.763 20.1238 388.816
rtibia 12.2411
rfoot -23.9503 -35.0221
rtoes 30.2505
lfemur 17.5905 -24.167 -23.8248
ltibia 31.6895
lfoot -8.56937 27.1071
ltoes 13.8411
458
root 15.9343 1.35163 1.11184 -761.859 -85.4074 -433.385
lowerback 23.6779 -2.76623 1.23276
upperback 7.94371 -3.99247 -0.722447
thorax -4.56272 -2.25679 -0.382031
lowerneck -6.20216 2.17059 -5.89609
upperneck -0.93043 3.19782 1.19997
head 0.638091 1.58891 1.44294
rclavicle 9.30312e-014 -1.67228e-013
rhumerus -44.3147 -16.8091 -66.317
rradius 11.5199
rwrist 71.5703
rhand -5.89177 -345.378
rfingers 7.12502
rthumb 19.9364 -374.375
lclavicle 9.30312e-014 -1.67228e-013
lhumerus -767.922 25.7784 -660.182
lradius 15.4633
lwrist -71.3809
lhand -5.34357 353.875
lfingers 7.12502
lthumb 20.4633 382.817
rfemur 390.726 20.2111 388.869
rtibia 12.231
rfoot -23.8595 -35.0058
rtoes 30.3235
lfemur 17.492 -24.1421 -23.7907
ltibia 31.716
lfoot -8.2332 27.0007
ltoes 13.4288
459
root 15.9346 1.35116 1.11183 -761.995 -85.3996 -433.204
lowerback 23.6118 -2.76512 1.25244
upperback 7.95345 -3.98695 -0.732364
thorax -4.52106 -2.25344 -0.409212
lowerneck -6.25657 2.14352 -5.95596
upperneck -0.906827 3.16942 1.22397
head 0.654829 1.57483 1.46192
rclavicle -3.10104e-014 -7.15625e-015
rhumerus -44.2749 -16.845 -66.3254
rradius 11.4907
rwrist 71.4684
rhand -5.90864 -345.383
rfingers 7.12502
rthumb 19.9202 -374.382
lclavicle -3.10104e-014 -7.15625e-015
lhumerus -767.9 25.8516 -660.279
lradius 15.4166
lwrist -71.3872
lhand -5.40213 353.791
lfingers 7.12502
lthumb 20.407 382.738
rfemur 390.689 20.323 388.914
rtibia 12.2218
rfoot -23.7577 -35.0431
rtoes 30.389
lfemur 17.4054 -24.1268 -23.795
ltibia 31.7378
lfoot -7.90143 26.9001
ltoes 13.2223
460
root 15.9342 1.35068 1.11183 -761.976 -85.3991 -433.179
lowerback 23.5639 -2.77228 1.27628
upperback 7.95119 -3.9908 -0.73776
thorax -4.50158 -2.2546 -0.429912
lowerneck -6.28072 2.13798 -5.9915
upperneck -0.910952 3.16545 1.22303
head 0.657348 1.57275 1.46815
rclavicle -3.57812e-014 1.26154e-013
rhumerus -44.2489 -16.8285 -66.3557
rradius 11.4917
rwrist 71.3564
rhand -5.86178 -345.385
rfingers 7.12502
rthumb 19.9652 -374.38
lclavicle -3.57812e-014 1.26154e-013
lhumerus -767.898 25.9272 -660.381
lradius 15.3591
lwrist -71.4092
lhand -5.52254 353.691
lfingers 7.12502
lthumb 20.2913 382.651
rfemur 390.65 20.3655 388.921
rtibia 12.1955
rfoot -23.6483 -35.006
rtoes 30.4906
lfemur 17.3045 -24.0934 -23.7593
ltibia 31.7622
lfoot -7.58478 26.7892
ltoes 13.0764
